<?xml version="1.0" encoding="UTF-8"?>
<svg version="1.1" xmlns="http://www.w3.org/2000/svg" width="626" height="626">
<path d="M0 0 C206.58 0 413.16 0 626 0 C626 206.58 626 413.16 626 626 C419.42 626 212.84 626 0 626 C0 419.42 0 212.84 0 0 Z " fill="#FEFEFE" transform="translate(0,0)"/>
<path d="M0 0 C3.84610828 3.43539067 7.61081736 6.95383801 11.31689453 10.53955078 C11.88553223 11.08482422 12.45416992 11.63009766 13.04003906 12.19189453 C35.21725604 33.83773781 49.67525866 63.18214592 55.83203125 93.28808594 C56.28444889 95.38888929 56.81950316 97.4468833 57.38330078 99.52001953 C66.88192293 137.15386026 55.01252472 182.25764045 36.28344727 214.86645508 C16.5682314 247.7203644 -14.3661639 273.97786894 -50.68310547 286.53955078 C-51.36638916 286.77907471 -52.04967285 287.01859863 -52.75366211 287.26538086 C-95.69486835 302.02098528 -141.76109186 299.44070425 -182.74560547 280.02783203 C-195.05247303 273.96417627 -206.43705658 266.67261033 -216.68310547 257.53955078 C-217.95541016 256.42966797 -217.95541016 256.42966797 -219.25341797 255.29736328 C-221.76380281 253.07870512 -224.23177781 250.82319804 -226.68310547 248.53955078 C-227.80845703 247.49541016 -227.80845703 247.49541016 -228.95654297 246.43017578 C-251.66491677 224.59826553 -265.31727885 195.2808367 -273.05810547 165.16455078 C-273.30898926 164.20291016 -273.55987305 163.24126953 -273.81835938 162.25048828 C-283.84023159 121.352869 -273.80992193 76.21792983 -252.53344727 40.59277344 C-245.49981479 29.17365306 -236.90066808 19.23091334 -227.68310547 9.53955078 C-227.10302734 8.90662109 -226.52294922 8.27369141 -225.92529297 7.62158203 C-212.28962348 -6.80207841 -194.50496092 -17.14461189 -176.68310547 -25.46044922 C-175.99168457 -25.78827393 -175.30026367 -26.11609863 -174.58789062 -26.45385742 C-118.47157278 -52.35513499 -46.33290889 -40.20357717 0 0 Z " fill="#000000" transform="translate(421.68310546875,184.46044921875)"/>
<path d="M0 0 C48.18 0 96.36 0 146 0 C146 16.5 146 33 146 50 C140.39 50 134.78 50 129 50 C128.566875 47.669375 128.13375 45.33875 127.6875 42.9375 C126.60115155 37.14243656 125.50516281 31.34918836 124.375 25.5625 C124.13523437 24.32628906 123.89546875 23.09007812 123.6484375 21.81640625 C123.28771672 19.11090725 123.28771672 19.11090725 122 18 C119.41450228 17.87494915 116.85438589 17.813952 114.26733398 17.79467773 C113.4576416 17.78477814 112.64794922 17.77487854 111.8137207 17.76467896 C109.12454195 17.73297013 106.4353455 17.70826965 103.74609375 17.68359375 C101.88663766 17.66303231 100.02718632 17.64203606 98.16773987 17.62062073 C93.26376185 17.56531634 88.35974107 17.5159441 83.45568848 17.46777344 C78.45544612 17.41761934 73.45526618 17.36190155 68.45507812 17.30664062 C58.63677201 17.19895679 48.81841181 17.09753468 39 17 C41.80651413 21.29677759 44.72035104 25.01865681 48.25 28.75 C53.11705706 33.96151988 57.61530721 39.37418548 62 45 C63.30992396 46.64788435 64.62245778 48.29369722 65.9375 49.9375 C66.60265625 50.76894531 67.2678125 51.60039062 67.953125 52.45703125 C70.76196824 55.94664375 73.60181072 59.41039818 76.44140625 62.875 C81.16001844 68.63484379 85.85857494 74.41059346 90.53759766 80.20263672 C91.80669824 81.76242278 93.09503742 83.30651765 94.38671875 84.84765625 C95.33998047 86.00587891 95.33998047 86.00587891 96.3125 87.1875 C96.84488281 87.82042969 97.37726563 88.45335937 97.92578125 89.10546875 C99.44684241 91.78806753 99.65634873 92.94886536 99 96 C97.06087799 98.53372871 94.77125374 100.64554783 92.4375 102.8125 C91.13883343 104.06063858 89.84193768 105.31062244 88.546875 106.5625 C87.61584961 107.45582031 87.61584961 107.45582031 86.66601562 108.3671875 C84.15754777 110.82566244 81.90360116 113.46652659 79.63671875 116.14453125 C76.96463328 119.17374509 74.05012537 121.95727127 71.17578125 124.79296875 C69.25502616 126.74131099 67.45957195 128.72999209 65.6875 130.8125 C62.62499795 134.3889884 59.34719384 137.69389493 56 141 C52.1298935 144.82277298 48.44583182 148.70082061 44.9296875 152.85546875 C41.78160481 156.35404648 38.38978874 159.61550627 34.99804688 162.87695312 C32.58149046 165.23767127 31.08480402 166.74558794 30 170 C80.985 169.505 80.985 169.505 133 169 C134.65 160.09 136.3 151.18 138 142 C138.33 140.68 138.66 139.36 139 138 C144.61 138 150.22 138 156 138 C156 156.48 156 174.96 156 194 C103.2 194 50.4 194 -4 194 C-4 181 -4 181 -1.8671875 177.4140625 C-0.90106201 176.45191966 0.09856938 175.52252854 1.125 174.625 C2.23531705 173.5426322 3.34465288 172.45925715 4.453125 171.375 C5.03642578 170.82585937 5.61972656 170.27671875 6.22070312 169.7109375 C9.23954456 166.8080779 12.04085144 163.70649824 14.875 160.625 C16.05612976 159.3582906 17.23843035 158.09267195 18.421875 156.828125 C19.01162109 156.19712891 19.60136719 155.56613281 20.20898438 154.91601562 C21.40299479 153.63867188 22.59700521 152.36132812 23.79101562 151.08398438 C30.89951556 143.47827789 37.99409802 135.86056069 45.046875 128.203125 C47.09443027 125.9801433 49.14709346 123.76201901 51.203125 121.546875 C52.26053042 120.40635545 53.31782405 119.26573225 54.375 118.125 C54.87837891 117.58254639 55.38175781 117.04009277 55.90039062 116.48120117 C58.55365521 113.60993912 61.1301404 110.69707578 63.625 107.6875 C64.40875 106.800625 65.1925 105.91375 66 105 C66.66 105 67.32 105 68 105 C69.70040254 102.22064575 69.70040254 102.22064575 69.71118164 99.05322266 C68.50548779 95.57231457 65.85824764 93.07980936 63.4375 90.375 C62.33468013 89.11698656 61.23312051 87.85786724 60.1328125 86.59765625 C59.59430664 85.98293457 59.05580078 85.36821289 58.50097656 84.73486328 C55.8732836 81.69771523 53.39381739 78.54717106 50.90234375 75.3984375 C44.44645552 67.25898089 37.77098827 59.29030544 31.16479492 51.27270508 C27.12630283 46.37058098 23.09642471 41.46166524 19.078125 36.54296875 C17.63195373 34.7733118 16.18389508 33.00519624 14.734375 31.23828125 C13.21996219 29.39162481 11.71450862 27.53757939 10.21875 25.67578125 C8.75757314 23.91362254 7.23629381 22.19938135 5.65625 20.54296875 C-1.24047763 13.02699268 0 11.6669148 0 0 Z " fill="#F9F9F9" transform="translate(234,212)"/>
<path d="M0 0 C0.33 0 0.66 0 1 0 C1.0462955 7.26692328 1.08185493 14.53381488 1.10362434 21.80085564 C1.11407142 25.17506994 1.12824725 28.54918352 1.15087891 31.92333984 C1.17504885 35.80048318 1.18646511 39.67748277 1.1953125 43.5546875 C1.20563507 44.76929657 1.21595764 45.98390564 1.22659302 47.23532104 C1.22674408 48.35633209 1.22689514 49.47734314 1.22705078 50.63232422 C1.231492 51.62271698 1.23593323 52.61310974 1.24050903 53.6335144 C1 56 1 56 -1 58 C-3.73928833 58.25168228 -3.73928833 58.25168228 -7.30126953 58.25396729 C-7.95493563 58.25708727 -8.60860172 58.26020725 -9.28207588 58.26342177 C-11.48241192 58.27142821 -13.68247419 58.26506802 -15.8828125 58.25878906 C-17.45619875 58.26149776 -19.02958374 58.265058 -20.60296631 58.26940918 C-24.88386883 58.27854994 -29.16467527 58.27498201 -33.44557953 58.26865101 C-37.91831223 58.26359972 -42.39103652 58.26828003 -46.86376953 58.27142334 C-54.37599164 58.27506554 -61.88817447 58.27025726 -69.40039062 58.26074219 C-78.09480245 58.24985715 -86.78912049 58.25338255 -95.48353004 58.264395 C-102.93832517 58.27346067 -110.393092 58.27475669 -117.84789085 58.26951766 C-122.30471713 58.26639399 -126.76149928 58.26599947 -131.21832275 58.27259064 C-135.40764015 58.27835303 -139.59683621 58.27438761 -143.78614044 58.26280212 C-145.32690479 58.26014959 -146.86767928 58.26093069 -148.40843964 58.26532745 C-150.50534277 58.27076114 -152.60185266 58.26397579 -154.69873047 58.25396729 C-155.87418427 58.25321323 -157.04963806 58.25245918 -158.26071167 58.25168228 C-161 58 -161 58 -163 56 C-163.37109375 52.8828125 -163.37109375 52.8828125 -163.4375 49.125 C-163.47746094 47.89007813 -163.51742187 46.65515625 -163.55859375 45.3828125 C-163 42 -163 42 -160.47265625 39.5546875 C-159.65667969 39.04164063 -158.84070313 38.52859375 -158 38 C-158 38.99 -158 39.98 -158 41 C-158.66 41.66 -159.32 42.32 -160 43 C-160.33 47.29 -160.66 51.58 -161 56 C-108.2 56 -55.4 56 -1 56 C-1 37.85 -1 19.7 -1 1 C-0.67 0.67 -0.34 0.34 0 0 Z " fill="#121212" transform="translate(391,350)"/>
<path d="M0 0 C0.66 0.66 1.32 1.32 2 2 C0.35 3.65 -1.3 5.3 -3 7 C45.51 7.495 45.51 7.495 95 8 C94.67 8.66 94.34 9.32 94 10 C60.67 10 27.34 10 -7 10 C-6.01641451 6.06565804 -5.691807 5.32850017 -2.9375 2.75 C-2.38964844 2.22921875 -1.84179688 1.7084375 -1.27734375 1.171875 C-0.64505859 0.59179688 -0.64505859 0.59179688 0 0 Z " fill="#0F0F0F" transform="translate(271,372)"/>
<path d="M0 0 C2.47304039 2.46864778 4.94174891 4.94089368 7.39453125 7.4296875 C15.47394041 15.60046316 23.98283545 22.88604846 33 30 C32.34 30.66 31.68 31.32 31 32 C23.7969174 26.20740696 16.76699621 20.29993227 10 14 C9.14535156 13.21109375 8.29070312 12.4221875 7.41015625 11.609375 C6.59417969 10.83078125 5.77820313 10.0521875 4.9375 9.25 C4.20402344 8.55390625 3.47054687 7.8578125 2.71484375 7.140625 C0.78224967 4.7281841 0.34532311 3.03884333 0 0 Z " fill="#151515" transform="translate(185,419)"/>
<path d="M0 0 C26.73 0 53.46 0 81 0 C81 0.33 81 0.66 81 1 C55.26 1.33 29.52 1.66 3 2 C3.99 3.485 3.99 3.485 5 5 C4.01 5 3.02 5 2 5 C1.34 4.34 0.68 3.68 0 3 C0 2.01 0 1.02 0 0 Z " fill="#1D1D1D" transform="translate(274,230)"/>
<path d="M0 0 C0.66 0.33 1.32 0.66 2 1 C-5.24662612 10.99788757 -14.19942643 19.39426202 -23 28 C-23.99 27.67 -24.98 27.34 -26 27 C-25.28714844 26.29875 -24.57429688 25.5975 -23.83984375 24.875 C-18.94245581 20.03245595 -14.17567969 15.16909172 -9.703125 9.92578125 C-6.63463173 6.45613175 -3.31240845 3.23497552 0 0 Z " fill="#131313" transform="translate(332,308)"/>
<path d="M0 0 C-1.4953315 3.62455354 -3.54332228 5.58936816 -6.5 8.125 C-11.90355742 12.86193568 -16.96248759 17.87929931 -22 23 C-22.99890651 24.0010923 -23.99839099 25.0016116 -25 26 C-24.48150327 22.11793257 -23.66725057 20.17090243 -20.8671875 17.44140625 C-20.22523438 16.80783203 -19.58328125 16.17425781 -18.921875 15.52148438 C-17.90867188 14.55178711 -17.90867188 14.55178711 -16.875 13.5625 C-16.22273437 12.91990234 -15.57046875 12.27730469 -14.8984375 11.61523438 C-3.01198445 0 -3.01198445 0 0 0 Z " fill="#131313" transform="translate(210,181)"/>
<path d="M0 0 C2.57632855 2.57632855 3.39434603 5.4635209 4.625 8.8125 C7.19301915 15.59582262 10.50620599 21.39040444 14.55859375 27.390625 C15.03425781 28.25171875 15.50992188 29.1128125 16 30 C15.67 30.99 15.34 31.98 15 33 C11.57106686 29.04294993 9.27323102 24.98037763 7 20.3125 C6.65332275 19.60786621 6.30664551 18.90323242 5.94946289 18.17724609 C0.17972196 6.32874359 0.17972196 6.32874359 -1 2 C-0.67 1.34 -0.34 0.68 0 0 Z " fill="#191919" transform="translate(157,371)"/>
<path d="M0 0 C3.49275577 3.40590216 6.71340683 6.9202773 9.8125 10.6875 C10.60269531 11.64011719 11.39289063 12.59273438 12.20703125 13.57421875 C14 16 14 16 14 18 C14.66 18 15.32 18 16 18 C17.2890625 19.75 17.2890625 19.75 18.625 22 C19.07101562 22.7425 19.51703125 23.485 19.9765625 24.25 C20.48316406 25.11625 20.48316406 25.11625 21 26 C20.01 26 19.02 26 18 26 C16.4921875 24.41796875 16.4921875 24.41796875 14.875 22.1875 C11.36256813 17.46181874 7.67178904 12.91840947 3.91796875 8.3828125 C0 3.51527495 0 3.51527495 0 0 Z " fill="#161616" transform="translate(313,276)"/>
<path d="M0 0 C5.25351102 0.92777237 8.22856305 4.45273937 12 8 C12.81984375 8.75539062 13.6396875 9.51078125 14.484375 10.2890625 C15.29390625 11.05992187 16.1034375 11.83078125 16.9375 12.625 C17.68902344 13.33914062 18.44054687 14.05328125 19.21484375 14.7890625 C21.19639015 17.24323157 21.657301 18.89938998 22 22 C17.75518319 18.68697225 14.29434614 15.1570328 10.8046875 11.0625 C8.02433423 7.8849534 5.01964245 4.9479359 2 2 C1.34 1.34 0.68 0.68 0 0 Z " fill="#131313" transform="translate(419,185)"/>
<path d="M0 0 C4.56389852 1.56445694 6.78420762 5.22936077 9.5625 8.9375 C10.52035454 10.19796989 11.47993606 11.45712965 12.44140625 12.71484375 C12.86107666 13.27292725 13.28074707 13.83101074 13.71313477 14.40600586 C14.98350586 16.06127626 14.98350586 16.06127626 16.65991211 17.51782227 C18 19 18 19 18 22 C17.34 22 16.68 22 16 22 C14.33791381 20.01207317 12.78451915 18.02046662 11.25 15.9375 C10.35320155 14.74095729 9.45477193 13.54563533 8.5546875 12.3515625 C8.11866211 11.7730957 7.68263672 11.19462891 7.23339844 10.59863281 C5.69075962 8.59918726 4.05295185 6.69919227 2.375 4.8125 C0 2 0 2 0 0 Z " fill="#181818" transform="translate(255,252)"/>
<path d="M0 0 C4.77591143 4.77591143 7.65999761 14.27841424 8 21 C7.0390625 23.2578125 7.0390625 23.2578125 6 25 C5.20798823 22.31260128 4.41638134 19.62508437 3.625 16.9375 C3.40328125 16.18533203 3.1815625 15.43316406 2.953125 14.65820312 C1.6146171 10.11121305 0.29575475 5.55936135 -1 1 C-0.67 0.67 -0.34 0.34 0 0 Z " fill="#1D1D1D" transform="translate(467,247)"/>
<path d="M0 0 C2.15584578 3.43521656 2.06351349 5.48728151 1.3203125 9.421875 C1.13339844 10.44667969 0.94648438 11.47148437 0.75390625 12.52734375 C0.54636719 13.59082031 0.33882813 14.65429688 0.125 15.75 C-0.07480469 16.82894531 -0.27460938 17.90789062 -0.48046875 19.01953125 C-0.97528529 21.68211547 -1.48217914 24.34181066 -2 27 C-4 25 -4 25 -4.08203125 22.890625 C-3.28924396 15.12360746 -1.76451718 7.60185074 0 0 Z " fill="#0C0C0C" transform="translate(371,350)"/>
<path d="M0 0 C0.66 0.66 1.32 1.32 2 2 C1.43152344 2.556875 0.86304688 3.11375 0.27734375 3.6875 C-4.20640109 8.11884716 -8.48956116 12.59598749 -12.4921875 17.46875 C-14 19 -14 19 -17 20 C-15.44657022 16.23358366 -13.10232647 13.93057511 -10.1875 11.125 C-6.5446477 7.56122554 -3.15576422 3.99730134 0 0 Z " fill="#141414" transform="translate(294,321)"/>
<path d="M0 0 C3.14858689 0.30330424 4.09119887 1.09270879 6.359375 3.3984375 C7.14828125 4.38070312 7.9371875 5.36296875 8.75 6.375 C9.54921875 7.35210937 10.3484375 8.32921875 11.171875 9.3359375 C13 12 13 12 13 15 C8.42265886 10.56570077 4.07873675 5.89853248 0 1 C0 0.67 0 0.34 0 0 Z " fill="#1B1B1B" transform="translate(232,225)"/>
<path d="M0 0 C0.99 0 1.98 0 3 0 C2 3 2 3 -1.16015625 4.82421875 C-2.45600869 5.45553148 -3.75706229 6.07625399 -5.0625 6.6875 C-5.72572266 7.00783203 -6.38894531 7.32816406 -7.07226562 7.65820312 C-8.71050858 8.4478598 -10.35471454 9.22512362 -12 10 C-12 9.01 -12 8.02 -12 7 C-10.37750059 6.16180842 -8.75191503 5.3295884 -7.125 4.5 C-6.22007812 4.0359375 -5.31515625 3.571875 -4.3828125 3.09375 C-2 2 -2 2 0 2 C0 1.34 0 0.68 0 0 Z " fill="#181818" transform="translate(397,455)"/>
<path d="M0 0 C0.33 0.99 0.66 1.98 1 3 C-2.63 6.63 -6.26 10.26 -10 14 C-10.66 13.34 -11.32 12.68 -12 12 C-8.04 8.04 -4.08 4.08 0 0 Z " fill="#151515" transform="translate(433,427)"/>
<path d="M0 0 C0.33 0.99 0.66 1.98 1 3 C-4.30094216 4.80304155 -9.60308488 6.50723624 -15 8 C-15.33 7.34 -15.66 6.68 -16 6 C-15.26394531 5.73445312 -14.52789062 5.46890625 -13.76953125 5.1953125 C-12.79371094 4.84210938 -11.81789062 4.48890625 -10.8125 4.125 C-9.84957031 3.77695313 -8.88664063 3.42890625 -7.89453125 3.0703125 C-5.24365141 2.09009512 -2.6186902 1.06279566 0 0 Z " fill="#1A1A1A" transform="translate(263,152)"/>
<path d="M0 0 C8.415 1.485 8.415 1.485 17 3 C17 3.33 17 3.66 17 4 C10.23893038 5.27567351 4.68650564 4.48725585 -2 3 C-1.34 2.67 -0.68 2.34 0 2 C0 1.34 0 0.68 0 0 Z " fill="#1D1D1D" transform="translate(275,474)"/>
<path d="M0 0 C-1.32 0.33 -2.64 0.66 -4 1 C-4 1.66 -4 2.32 -4 3 C-10.53162622 4.10914408 -16.43507888 3.78441153 -23 3 C-23 2.67 -23 2.34 -23 2 C-20.10452736 1.66324721 -17.20868928 1.33048266 -14.3125 1 C-13.49587891 0.90460938 -12.67925781 0.80921875 -11.83789062 0.7109375 C-7.87139948 0.26129478 -3.99997537 -0.13034543 0 0 Z " fill="#131313" transform="translate(345,476)"/>
<path d="M0 0 C0.99 0.495 0.99 0.495 2 1 C2.81640625 3.546875 2.81640625 3.546875 3.5625 6.75 C3.81128906 7.79671875 4.06007812 8.8434375 4.31640625 9.921875 C4.91315237 12.60893752 5.47464745 15.29818689 6 18 C5.67 17.34 5.34 16.68 5 16 C4.34 16 3.68 16 3 16 C-0.44419134 5.62642369 -0.44419134 5.62642369 0 0 Z " fill="#101010" transform="translate(151,352)"/>
<path d="M0 0 C0.66 0.66 1.32 1.32 2 2 C1.01 2.33 0.02 2.66 -1 3 C-1.103125 3.5775 -1.20625 4.155 -1.3125 4.75 C-2.40707864 8.33225738 -5.06823206 9.75439052 -8 12 C-8 8.03869629 -6.65122875 7.17085599 -4 4.3125 C-3.2575 3.50425781 -2.515 2.69601562 -1.75 1.86328125 C-1.1725 1.24839844 -0.595 0.63351562 0 0 Z " fill="#1F1F1F" transform="translate(289,353)"/>
<path d="M0 0 C0.33 0 0.66 0 1 0 C2.81396762 16.99548125 2.81396762 16.99548125 -2 23 C-1.37084903 15.32971263 -0.70900858 7.66332677 0 0 Z " fill="#111111" transform="translate(478,322)"/>
<path d="M0 0 C0.66 0.33 1.32 0.66 2 1 C0.63408831 4.54243452 -0.90931484 7.92627929 -2.625 11.3125 C-3.07101563 12.19550781 -3.51703125 13.07851562 -3.9765625 13.98828125 C-4.31429687 14.65214844 -4.65203125 15.31601563 -5 16 C-5.66 15.01 -6.32 14.02 -7 13 C-3.535 6.565 -3.535 6.565 0 0 Z " fill="#1A1A1A" transform="translate(167,229)"/>
<path d="M0 0 C2.46140365 2.46140365 3.30326986 4.78456293 4.625 8 C5.07101563 9.0725 5.51703125 10.145 5.9765625 11.25 C7 14 7 14 7 16 C6.34 16 5.68 16 5 16 C3.96728358 13.90163996 2.94916283 11.79609109 1.9375 9.6875 C1.36902344 8.51574219 0.80054688 7.34398437 0.21484375 6.13671875 C-1 3 -1 3 0 0 Z " fill="#0F0F0F" transform="translate(157,371)"/>
<path d="M0 0 C0.33 0.99 0.66 1.98 1 3 C-0.45217676 4.50596108 -1.91192861 6.00462104 -3.375 7.5 C-4.18710937 8.3353125 -4.99921875 9.170625 -5.8359375 10.03125 C-8 12 -8 12 -10 12 C-8.52278578 8.54798361 -6.56205999 6.35038064 -3.875 3.75 C-3.15054687 3.04359375 -2.42609375 2.3371875 -1.6796875 1.609375 C-1.12539063 1.07828125 -0.57109375 0.5471875 0 0 Z " fill="#171717" transform="translate(273,344)"/>
<path d="M0 0 C4.29 0.66 8.58 1.32 13 2 C13 2.66 13 3.32 13 4 C14.32 4.33 15.64 4.66 17 5 C11.63108121 4.50130596 6.30764827 3.97772468 1 3 C0.67 2.01 0.34 1.02 0 0 Z " fill="#131313" transform="translate(333,146)"/>
<path d="M0 0 C9.59453303 6.15034169 9.59453303 6.15034169 13 10 C8.96618977 10 7.50566363 8.40426438 4.3125 6 C3.31863281 5.2575 2.32476562 4.515 1.30078125 3.75 C0.54152344 3.1725 -0.21773438 2.595 -1 2 C-0.67 1.34 -0.34 0.68 0 0 Z " fill="#191919" transform="translate(406,173)"/>
<path d="M0 0 C4.67948398 -0.27771418 7.67583336 0.45162603 11.875 2.5 C13.32519531 3.19609375 13.32519531 3.19609375 14.8046875 3.90625 C15.52914063 4.2671875 16.25359375 4.628125 17 5 C16.34 5.66 15.68 6.32 15 7 C7.575 4.03 7.575 4.03 0 1 C0 0.67 0 0.34 0 0 Z " fill="#141414" transform="translate(373,158)"/>
<path d="M0 0 C0.97582031 0.00902344 1.95164062 0.01804687 2.95703125 0.02734375 C3.69308594 0.03894531 4.42914063 0.05054688 5.1875 0.0625 C5.5175 1.0525 5.8475 2.0425 6.1875 3.0625 C0.5775 2.7325 -5.0325 2.4025 -10.8125 2.0625 C-10.8125 1.7325 -10.8125 1.4025 -10.8125 1.0625 C-7.13862505 0.20951624 -3.7677607 -0.04539471 0 0 Z " fill="#212121" transform="translate(298.8125,477.9375)"/>
<path d="M0 0 C0.66 0.66 1.32 1.32 2 2 C-2 6 -6 10 -10 14 C-10 9.84439769 -7.7179548 8.15900671 -5 5.3125 C-4.52304688 4.80138672 -4.04609375 4.29027344 -3.5546875 3.76367188 C-2.37640085 2.50290516 -1.18904747 1.25062314 0 0 Z " fill="#131313" transform="translate(256,362)"/>
<path d="M0 0 C6.33393082 -0.34548714 11.10261508 0.70657253 17 3 C17 3.66 17 4.32 17 5 C11.24237834 3.91103333 5.60752181 2.70663707 0 1 C0 0.67 0 0.34 0 0 Z " fill="#0F0F0F" transform="translate(351,151)"/>
<path d="M0 0 C0.66 0.33 1.32 0.66 2 1 C0.77443263 5.37702633 -0.53060547 9.69677317 -2 14 C-3.1171875 12.328125 -3.1171875 12.328125 -4 10 C-3.3203125 7.421875 -3.3203125 7.421875 -2.125 4.75 C-1.73570312 3.85796875 -1.34640625 2.9659375 -0.9453125 2.046875 C-0.63335937 1.37140625 -0.32140625 0.6959375 0 0 Z " fill="#1F1F1F" transform="translate(158,247)"/>
<path d="M0 0 C-0.66 0 -1.32 0 -2 0 C-2 0.66 -2 1.32 -2 2 C-3.41199578 2.39222105 -4.82992764 2.76311059 -6.25 3.125 C-7.03890625 3.33382813 -7.8278125 3.54265625 -8.640625 3.7578125 C-11.4203071 4.04314411 -12.65887549 3.44977894 -15 2 C-13.06524329 1.46906676 -11.12706845 0.95057683 -9.1875 0.4375 C-8.10855469 0.14746094 -7.02960938 -0.14257812 -5.91796875 -0.44140625 C-3 -1 -3 -1 0 0 Z " fill="#101010" transform="translate(361,473)"/>
<path d="M0 0 C-2.16526269 2.16526269 -3.58051386 2.75544982 -6.4375 3.75 C-7.21996094 4.03359375 -8.00242187 4.3171875 -8.80859375 4.609375 C-11 5 -11 5 -14 3 C-12.23358317 2.3012307 -10.46167336 1.61633417 -8.6875 0.9375 C-7.20830078 0.36322266 -7.20830078 0.36322266 -5.69921875 -0.22265625 C-3 -1 -3 -1 0 0 Z " fill="#1C1C1C" transform="translate(379,467)"/>
<path d="M0 0 C1.79570284 2.66125745 2.03345719 3.78111062 1.5390625 7.015625 C1.08660156 8.61664063 1.08660156 8.61664063 0.625 10.25 C0.32851563 11.32765625 0.03203125 12.4053125 -0.2734375 13.515625 C-0.51320313 14.33546875 -0.75296875 15.1553125 -1 16 C-1.33 16 -1.66 16 -2 16 C-2.2358396 10.22192976 -1.86783046 5.48675196 0 0 Z " fill="#1E1E1E" transform="translate(473,354)"/>
<path d="M0 0 C1.79275866 3.11910856 2.34290718 5.67682428 2.625 9.25 C2.69976562 10.14203125 2.77453125 11.0340625 2.8515625 11.953125 C2.92503906 12.96632813 2.92503906 12.96632813 3 14 C2.01 14.495 2.01 14.495 1 15 C0.63684334 13.0641649 0.28477269 11.12624752 -0.0625 9.1875 C-0.25972656 8.10855469 -0.45695313 7.02960938 -0.66015625 5.91796875 C-1 3 -1 3 0 0 Z " fill="#111111" transform="translate(148,336)"/>
<path d="M0 0 C0.66 0.66 1.32 1.32 2 2 C-1.49359465 5.59634744 -5.11098131 8.83451967 -9 12 C-7.55575365 8.76138697 -5.74227753 6.38030837 -3.375 3.75 C-2.74335938 3.04359375 -2.11171875 2.3371875 -1.4609375 1.609375 C-0.97882813 1.07828125 -0.49671875 0.5471875 0 0 Z " fill="#202020" transform="translate(305,336)"/>
<path d="M0 0 C0.99 0.33 1.98 0.66 3 1 C2.690625 1.66 2.38125 2.32 2.0625 3 C0.75039745 6.70476015 0.39735865 10.09263991 0 14 C-1.53508028 11.56661348 -2.03088304 10.32875493 -1.7578125 7.421875 C-1.54898438 6.54015625 -1.34015625 5.6584375 -1.125 4.75 C-0.92132813 3.85796875 -0.71765625 2.9659375 -0.5078125 2.046875 C-0.34023437 1.37140625 -0.17265625 0.6959375 0 0 Z " fill="#1D1D1D" transform="translate(151,266)"/>
<path d="M0 0 C-1.4258086 3.45195767 -3.09746334 5.1014256 -6.125 7.25 C-7.21167969 8.03117188 -7.21167969 8.03117188 -8.3203125 8.828125 C-8.87460938 9.21484375 -9.42890625 9.6015625 -10 10 C-10 7 -10 7 -8.3203125 5.17578125 C-7.59585938 4.56089844 -6.87140625 3.94601563 -6.125 3.3125 C-5.40570313 2.68988281 -4.68640625 2.06726563 -3.9453125 1.42578125 C-2 0 -2 0 0 0 Z " fill="#1B1B1B" transform="translate(210,181)"/>
<path d="M0 0 C0.66 0.66 1.32 1.32 2 2 C0.625 3.5 0.625 3.5 -1 5 C-1.66 5 -2.32 5 -3 5 C-3 8.96 -3 12.92 -3 17 C-3.33 17 -3.66 17 -4 17 C-4.10832169 14.91781638 -4.18573541 12.83400871 -4.25 10.75 C-4.29640625 9.58984375 -4.3428125 8.4296875 -4.390625 7.234375 C-3.93035506 3.42333987 -2.94851556 2.34488245 0 0 Z " fill="#202020" transform="translate(232,388)"/>
<path d="M0 0 C3.28788824 3.11016455 5.83735988 6.01618925 8 10 C7.01 10 6.02 10 5 10 C3.39453125 8.03125 3.39453125 8.03125 1.8125 5.5 C1.28269531 4.6646875 0.75289063 3.829375 0.20703125 2.96875 C-0.19128906 2.3190625 -0.58960938 1.669375 -1 1 C-0.67 0.67 -0.34 0.34 0 0 Z " fill="#1C1C1C" transform="translate(443,207)"/>
<path d="M0 0 C3.91211733 1.15585285 6.8745041 2.35534962 10 5 C7 6 7 6 4.95703125 5.22265625 C4.24933594 4.83980469 3.54164063 4.45695312 2.8125 4.0625 C2.09707031 3.68222656 1.38164062 3.30195313 0.64453125 2.91015625 C0.10183594 2.60980469 -0.44085938 2.30945313 -1 2 C-0.67 1.34 -0.34 0.68 0 0 Z " fill="#232323" transform="translate(235,460)"/>
<path d="M0 0 C0.66 0.33 1.32 0.66 2 1 C0.88200014 2.33920838 -0.24461897 3.67122556 -1.375 5 C-2.00148438 5.7425 -2.62796875 6.485 -3.2734375 7.25 C-4.12808594 8.11625 -4.12808594 8.11625 -5 9 C-5.66 9 -6.32 9 -7 9 C-5.44499019 5.18315774 -2.96404505 2.80804268 0 0 Z " fill="#0C0C0C" transform="translate(279,364)"/>
<path d="M0 0 C2.93200474 2.85276137 5.64315404 5.65079784 8 9 C7.01 9.495 7.01 9.495 6 10 C3.08511023 7.3765992 1.11496102 4.28183606 -1 1 C-0.67 0.67 -0.34 0.34 0 0 Z " fill="#1D1D1D" transform="translate(279,280)"/>
<path d="M0 0 C3.28788824 3.11016455 5.83735988 6.01618925 8 10 C7.01 10.495 7.01 10.495 6 11 C4.99126984 9.73608512 3.99328178 8.46359117 3 7.1875 C2.443125 6.47980469 1.88625 5.77210938 1.3125 5.04296875 C0 3 0 3 0 0 Z " fill="#161616" transform="translate(291,249)"/>
<path d="M0 0 C2.93200474 2.85276137 5.64315404 5.65079784 8 9 C7.01 9.495 7.01 9.495 6 10 C3.08511023 7.3765992 1.11496102 4.28183606 -1 1 C-0.67 0.67 -0.34 0.34 0 0 Z " fill="#1B1B1B" transform="translate(247,241)"/>
<path d="M0 0 C2.64465038 3.1254959 3.84414715 6.08788267 5 10 C4.01 10.495 4.01 10.495 3 11 C2.30034557 9.73581754 1.61565237 8.46334598 0.9375 7.1875 C0.55464844 6.47980469 0.17179687 5.77210938 -0.22265625 5.04296875 C-1 3 -1 3 0 0 Z " fill="#222222" transform="translate(461,234)"/>
<path d="M0 0 C2.33333333 2.33333333 4.66666667 4.66666667 7 7 C7 7.99 7 8.98 7 10 C6.34 10 5.68 10 5 10 C3.4921875 8.03125 3.4921875 8.03125 1.875 5.5 C1.33617187 4.6646875 0.79734375 3.829375 0.2421875 2.96875 C-0.16773438 2.3190625 -0.57765625 1.669375 -1 1 C-0.67 0.67 -0.34 0.34 0 0 Z " fill="#1A1A1A" transform="translate(298,303)"/>
<path d="M0 0 C3.28788824 3.11016455 5.83735988 6.01618925 8 10 C7.01 10 6.02 10 5 10 C3.61328125 8.57421875 3.61328125 8.57421875 2.3125 6.6875 C1.87550781 6.07261719 1.43851562 5.45773437 0.98828125 4.82421875 C0 3 0 3 0 0 Z " fill="#1C1C1C" transform="translate(304,265)"/>
<path d="M0 0 C0.66 0.66 1.32 1.32 2 2 C0.35 3.65 -1.3 5.3 -3 7 C-3 3 -3 3 -1.5 1.25 C-1.005 0.8375 -0.51 0.425 0 0 Z M-6 8 C-5.01 8.495 -5.01 8.495 -4 9 C-4.99 9.495 -4.99 9.495 -6 10 C-6 9.34 -6 8.68 -6 8 Z " fill="#090909" transform="translate(294,348)"/>
<path d="M0 0 C0.66 0 1.32 0 2 0 C3.25 6.5 3.25 6.5 1 11 C0.67 7.37 0.34 3.74 0 0 Z " fill="#202020" transform="translate(476,280)"/>
<path d="M0 0 C0.66 0.66 1.32 1.32 2 2 C1.34 2 0.68 2 0 2 C0 1.34 0 0.68 0 0 Z M-1 2 C-0.34 2.66 0.32 3.32 1 4 C-0.2739589 6.03833424 -1.61061923 8.03852126 -3 10 C-3.66 10 -4.32 10 -5 10 C-3.87548273 7.0280615 -2.77706209 4.66559313 -1 2 Z " fill="#1D1D1D" transform="translate(173,219)"/>
<path d="M0 0 C3.2542015 2.83430453 4.5206753 4.68607774 5 9 C2.5 6.75 2.5 6.75 0 4 C0 2.68 0 1.36 0 0 Z " fill="#171717" transform="translate(451,218)"/>
<path d="M0 0 C2.39763185 2.39763185 2.34280586 3.33273498 2.625 6.625 C2.69976562 7.44226563 2.77453125 8.25953125 2.8515625 9.1015625 C2.90054687 9.72804688 2.94953125 10.35453125 3 11 C0.81024227 7.71536341 0.00193437 4.79303725 -1 1 C-0.67 0.67 -0.34 0.34 0 0 Z " fill="#161616" transform="translate(467,247)"/>
<path d="M0 0 C1.9453125 0.2421875 1.9453125 0.2421875 4.125 0.875 C4.84945313 1.07867187 5.57390625 1.28234375 6.3203125 1.4921875 C6.87460937 1.65976562 7.42890625 1.82734375 8 2 C7.01 2.66 6.02 3.32 5 4 C1.3125 3.125 1.3125 3.125 -2 2 C-1.34 1.34 -0.68 0.68 0 0 Z " fill="#242424" transform="translate(256,469)"/>
<path d="M0 0 C2.58464442 4.38008443 1.81479148 7.11125113 1 12 C0.34 11.34 -0.32 10.68 -1 10 C-0.9765625 7.6171875 -0.9765625 7.6171875 -0.625 4.875 C-0.51414062 3.96492188 -0.40328125 3.05484375 -0.2890625 2.1171875 C-0.19367188 1.41851562 -0.09828125 0.71984375 0 0 Z " fill="#1E1E1E" transform="translate(368,365)"/>
<path d="M0 0 C-1.28519565 2.86697492 -2.57129254 4.97607712 -5 7 C-5.66 7 -6.32 7 -7 7 C-3.86206897 0 -3.86206897 0 0 0 Z " fill="#0E0E0E" transform="translate(284,334)"/>
<path d="M0 0 C0.66 0 1.32 0 2 0 C3.25 6.5 3.25 6.5 1 11 C0.67 7.37 0.34 3.74 0 0 Z " fill="#0F0F0F" transform="translate(358,241)"/>
<path d="M0 0 C1.98 0 3.96 0 6 0 C6 0.33 6 0.66 6 1 C8.97 1.495 8.97 1.495 12 2 C12 2.33 12 2.66 12 3 C10.37581255 3.08090971 8.75048255 3.13914995 7.125 3.1875 C5.76761719 3.23970703 5.76761719 3.23970703 4.3828125 3.29296875 C3.20332031 3.14794922 3.20332031 3.14794922 2 3 C1.34 2.01 0.68 1.02 0 0 Z " fill="#212121" transform="translate(320,145)"/>
<path d="M0 0 C1.125 1.5 1.125 1.5 2 4 C1.57598348 6.7773082 0.81108065 9.29639783 0 12 C-0.33 12 -0.66 12 -1 12 C-1.14285714 3.42857143 -1.14285714 3.42857143 0 0 Z " fill="#0D0D0D" transform="translate(475,346)"/>
<path d="M0 0 C0.33 0.99 0.66 1.98 1 3 C-0.32 4.32 -1.64 5.64 -3 7 C-3.99 6.67 -4.98 6.34 -6 6 C-4.02 4.02 -2.04 2.04 0 0 Z " fill="#0D0D0D" transform="translate(312,329)"/>
<path d="M0 0 C0.66 0.66 1.32 1.32 2 2 C0.02 4.97 0.02 4.97 -2 8 C-2.66 7.67 -3.32 7.34 -4 7 C-2.79618552 4.50638429 -1.54571278 2.31856917 0 0 Z " fill="#1F1F1F" transform="translate(453,402)"/>
</svg>
